<svg width="81" height="80" viewBox="0 0 81 80" fill="none" xmlns="http://www.w3.org/2000/svg">
<g clip-path="url(#clip0)">
<path d="M33.032 44.6875C33.032 48.5645 36.1863 51.7188 40.0632 51.7188C43.9402 51.7188 47.0945 48.5645 47.0945 44.6875C47.0945 40.8105 43.9402 37.6562 40.0632 37.6562C36.1863 37.6562 33.032 40.8105 33.032 44.6875Z" fill="#FF6F14"/>
<path d="M40.0632 56.4062C32.3087 56.4062 26.0007 62.7142 26.0007 70.4688V80H54.1257V70.4688C54.1257 62.7142 47.8177 56.4062 40.0632 56.4062Z" fill="#FF6F14"/>
<path d="M21.3132 49.375C21.3132 45.498 18.1589 42.3438 14.282 42.3438C10.405 42.3438 7.25073 45.498 7.25073 49.375C7.25073 53.252 10.405 56.4062 14.282 56.4062C18.1589 56.4062 21.3132 53.252 21.3132 49.375Z" fill="#FF6F14"/>
<path d="M72.8757 49.375C72.8757 45.498 69.7214 42.3438 65.8445 42.3438C61.9675 42.3438 58.8132 45.498 58.8132 49.375C58.8132 53.252 61.9675 56.4062 65.8445 56.4062C69.7214 56.4062 72.8757 53.252 72.8757 49.375Z" fill="#FF6F14"/>
<path d="M11.9382 0L8.37256 8.40637L0.0632324 9.57825L6.05627 15.271L4.6781 23.5938L11.9382 19.7992L19.1984 23.5938L17.8202 15.271L23.657 9.57825L15.5912 8.40637L11.9382 0Z" fill="#FF6F14"/>
<path d="M43.7162 8.40637L40.0632 0L36.4976 8.40637L28.3445 9.57825L34.1813 15.271L32.8031 23.5938L40.0632 19.7992L47.3234 23.5938L45.9452 15.271L51.782 9.57825L43.7162 8.40637Z" fill="#FF6F14"/>
<path d="M68.1882 0L64.6226 8.40637L56.4695 9.57825L62.3063 15.271L60.9281 23.5938L68.1882 19.7992L75.4484 23.5938L74.0702 15.271L80.0632 9.57825L71.8412 8.40637L68.1882 0Z" fill="#FF6F14"/>
<path d="M65.8444 61.0938C62.7291 61.0938 59.8782 62.1393 57.5479 63.8531C58.3322 65.918 58.8131 68.1323 58.8131 70.4688V80H80.0631V75.1562C80.0631 67.3895 73.6111 61.0938 65.8444 61.0938Z" fill="#FF6F14"/>
<path d="M0.0632324 75.1562V80H21.3132V70.4688C21.3132 68.1323 21.7942 65.918 22.5785 63.8531C20.2482 62.1393 17.3972 61.0938 14.282 61.0938C6.51526 61.0938 0.0632324 67.3895 0.0632324 75.1562Z" fill="#FF6F14"/>
</g>
<defs>
<clipPath id="clip0">
<rect width="80" height="80" fill="white" transform="translate(0.0632324)"/>
</clipPath>
</defs>
</svg>
