<svg width="134" height="134" viewBox="0 0 134 134" fill="none" xmlns="http://www.w3.org/2000/svg">
<path d="M77.4688 27.2188C77.4688 26.0651 76.5287 25.125 75.375 25.125H75.1049C74.0078 25.125 73.0886 25.9834 73.0154 27.0806L72.8667 29.3125H75.375C76.5287 29.3125 77.4688 28.3724 77.4688 27.2188Z" fill="#FF6F14"/>
<path d="M58.8951 25.125H58.625C57.4713 25.125 56.5312 26.0651 56.5312 27.2188C56.5312 28.3724 57.4713 29.3125 58.625 29.3125H61.1333L60.9847 27.0806C60.9114 25.9834 59.9922 25.125 58.8951 25.125Z" fill="#FF6F14"/>
<path d="M58.625 58.625C58.625 62.0881 61.4432 64.9063 64.9062 64.9063H69.0938C72.5568 64.9063 75.375 62.0881 75.375 58.625V56.5312H58.625V58.625Z" fill="#FF6F14"/>
<path d="M53.7486 43.4076C56.5731 45.717 58.2837 48.933 58.5664 52.3437H62.668L61.4118 33.5H58.625C55.1619 33.5 52.3437 30.6818 52.3437 27.2187C52.3437 23.7557 55.1619 20.9375 58.625 20.9375H58.8951C62.1886 20.9375 64.9418 23.5128 65.1617 26.8L65.3292 29.3125H68.6708L68.8383 26.8021C69.0581 23.5128 71.8114 20.9375 75.1049 20.9375H75.375C78.8381 20.9375 81.6562 23.7557 81.6562 27.2187C81.6562 30.6818 78.8381 33.5 75.375 33.5H72.5882L71.332 52.3437H75.4315C75.7058 48.9163 77.385 45.7254 80.1634 43.4788C85.1026 39.4818 87.9375 33.5544 87.9375 27.2187C87.9375 21.2683 85.3915 15.5796 80.9548 11.6077C77.0647 8.12793 72.1904 6.27914 67.0272 6.27914C66.219 6.27914 65.4025 6.32521 64.5817 6.41524C55.4048 7.44118 47.727 14.784 46.3242 23.8729C45.1664 31.356 47.9427 38.659 53.7486 43.4076Z" fill="#FF6F14"/>
<path d="M68.3924 33.5H65.6077L66.8639 52.3438H67.1361L68.3924 33.5Z" fill="#FF6F14"/>
<path d="M23.0312 83.75C23.0312 84.9058 23.9713 85.8438 25.125 85.8438H29.3125C30.4662 85.8438 31.4062 84.9058 31.4062 83.75V81.6562H23.0312V83.75Z" fill="#FF6F14"/>
<path d="M19.338 70.9718C21.5092 72.36 22.845 74.7657 23 77.4688H25.1251V62.2325C23.8793 61.5081 23.0314 60.1723 23.0314 58.625C23.0314 56.3114 24.9053 54.4375 27.2189 54.4375C29.5325 54.4375 31.4064 56.3114 31.4064 58.625C31.4064 60.1702 30.5584 61.506 29.3126 62.2325V77.4688H31.4336C31.5697 74.7888 32.9202 72.3726 35.1353 70.953C39.3542 68.2374 41.8751 63.6291 41.8751 58.625C41.8751 54.4563 40.0891 50.4698 36.9778 47.6893C34.256 45.2585 30.8494 43.9688 27.2377 43.9688C26.664 43.9688 26.0841 44.0023 25.502 44.0672C18.9151 44.8125 13.5257 50.1223 12.6882 56.6904C11.9575 62.4126 14.5056 67.8857 19.338 70.9718Z" fill="#FF6F14"/>
<path d="M98.9002 70.9718C101.071 72.36 102.407 74.7657 102.562 77.4688H104.687V62.2325C103.442 61.5081 102.594 60.1723 102.594 58.625C102.594 56.3114 104.468 54.4375 106.781 54.4375C109.095 54.4375 110.969 56.3114 110.969 58.625C110.969 60.1702 110.121 61.506 108.875 62.2325V77.4688H110.996C111.132 74.7888 112.482 72.3726 114.698 70.953C118.916 68.2374 121.437 63.6291 121.437 58.625C121.437 54.4563 119.651 50.4698 116.54 47.6893C113.818 45.2585 110.412 43.9688 106.8 43.9688C106.226 43.9688 105.646 44.0023 105.064 44.0672C98.4773 44.8125 93.088 50.1223 92.2505 56.6904C91.5198 62.4126 94.0679 67.8857 98.9002 70.9718Z" fill="#FF6F14"/>
<path d="M102.594 83.75C102.594 84.9058 103.534 85.8438 104.688 85.8438H108.875C110.029 85.8438 110.969 84.9058 110.969 83.75V81.6562H102.594V83.75Z" fill="#FF6F14"/>
<path d="M127.719 127.719H131.906V131.906H127.719V127.719Z" fill="#FF6F14"/>
<path d="M2.09375 127.719H6.28125V131.906H2.09375V127.719Z" fill="#FF6F14"/>
<path d="M117.25 106.781C124.189 106.781 129.812 101.157 129.812 94.2188H119.344C114.972 94.2188 111.126 96.4549 108.875 99.8426V90.0312H104.688V114.499C102.437 111.111 98.5905 108.875 94.2188 108.875H83.75C83.75 115.814 89.3738 121.438 96.3125 121.438H104.688V127.719H69.0938V123.531V121.438V106.781H75.375C81.1475 106.781 85.8438 102.085 85.8438 96.3125V94.2188H75.375C73.0091 94.2188 70.8483 95.0374 69.0938 96.3669V90.0312V87.9375H75.375C82.3137 87.9375 87.9375 82.3137 87.9375 75.375H79.5625C75.1908 75.375 71.3445 77.6111 69.0938 80.9988V69.0938H64.9062V79.6169C63.1517 78.2874 60.9909 77.4688 58.625 77.4688H48.1562V79.5625C48.1562 85.335 52.8525 90.0312 58.625 90.0312H64.9062V104.688V106.781V113.117C63.1517 111.787 60.9909 110.969 58.625 110.969H48.1562V113.062C48.1562 118.835 52.8525 123.531 58.625 123.531H64.9062V127.719H29.3125V106.781H37.6875C44.6262 106.781 50.25 101.157 50.25 94.2188H39.7812C35.4095 94.2188 31.5633 96.4549 29.3125 99.8426V90.0312H25.125V114.499C22.8742 111.111 19.028 108.875 14.6562 108.875H4.1875C4.1875 115.814 9.81131 121.438 16.75 121.438H25.125V127.719H10.4688V131.906H123.531V127.719H108.875V106.781H117.25Z" fill="#FF6F14"/>
</svg>
