<svg width="134" height="134" viewBox="0 0 134 134" fill="none" xmlns="http://www.w3.org/2000/svg">
<g clip-path="url(#clip0)">
<path d="M70.9258 70.3151H83.4367C82.3791 66.7471 81.0116 63.4296 79.3683 60.5198C76.8618 56.0818 73.8832 52.8789 70.9258 51.3196V70.3151Z" fill="#FF6F14"/>
<path d="M63.0742 51.3196C60.117 52.8789 57.1381 56.0818 54.6317 60.5198C52.9883 63.4296 51.6208 66.7471 50.5632 70.3151H63.0742V51.3196Z" fill="#FF6F14"/>
<path d="M70.9258 98.2317H85.1942C85.7058 94.9586 85.9746 91.583 85.9746 88.1992C85.9746 84.8155 85.7058 81.4398 85.1942 78.1667H70.9258V98.2317Z" fill="#FF6F14"/>
<path d="M63.0742 78.1667H48.8058C48.2942 81.4398 48.0254 84.8155 48.0254 88.1992C48.0254 91.583 48.2942 94.9586 48.8058 98.2317H63.0742V78.1667Z" fill="#FF6F14"/>
<path d="M63.0742 106.083H50.5632C51.6208 109.651 52.9883 112.969 54.6317 115.879C57.1381 120.317 60.1168 123.519 63.0742 125.079V106.083Z" fill="#FF6F14"/>
<path d="M47.7951 119.741C45.4938 115.666 43.6767 111.043 42.395 106.084H24.8363C31.8163 122.478 48.0874 134.001 67 134.001C59.9132 134.001 52.9135 128.803 47.7951 119.741Z" fill="#FF6F14"/>
<path d="M86.2049 119.74C81.0865 128.803 74.0868 134 67 134C85.9126 134 102.184 122.477 109.164 106.083H91.605C90.3231 111.042 88.5062 115.665 86.2049 119.74Z" fill="#FF6F14"/>
<path d="M70.9258 106.083V125.079C73.8829 123.519 76.8618 120.317 79.3683 115.879C81.0116 112.969 82.3791 109.651 83.4367 106.083H70.9258Z" fill="#FF6F14"/>
<path d="M125.212 50.3691C122.244 45.0504 116.837 41.875 110.746 41.875C104.656 41.875 99.2485 45.0502 96.2812 50.3688C93.3138 55.6875 93.4522 61.9569 96.6515 67.1395L107.406 84.5613C108.126 85.7283 109.375 86.425 110.747 86.425C112.118 86.425 113.367 85.7281 114.087 84.5613L124.841 67.1395C128.04 61.9569 128.179 55.6877 125.212 50.3691ZM110.746 62.293C108.578 62.293 106.821 60.5353 106.821 58.3672C106.821 56.1991 108.578 54.4414 110.746 54.4414C112.914 54.4414 114.672 56.1991 114.672 58.3672C114.672 60.5353 112.915 62.293 110.746 62.293Z" fill="#FF6F14"/>
<path d="M81.4652 8.49408C78.4978 3.17543 73.0902 0 67 0C60.9098 0 55.5022 3.17517 52.5348 8.49382C49.5674 13.8125 49.7059 20.0819 52.9051 25.2645L63.6594 42.6863C64.3799 43.8533 65.6286 44.55 67.0005 44.55C68.3717 44.55 69.6206 43.8531 70.3406 42.6863L81.0951 25.2645C84.2941 20.0819 84.4323 13.8127 81.4652 8.49408ZM67 20.418C64.8319 20.418 63.0742 18.6603 63.0742 16.4922C63.0742 14.3241 64.8319 12.5664 67 12.5664C69.1681 12.5664 70.9258 14.3241 70.9258 16.4922C70.9258 18.6603 69.1681 20.418 67 20.418Z" fill="#FF6F14"/>
<path d="M45.2723 47.889C46.6676 50.78 47.4624 53.8316 47.6629 56.9026C47.7076 56.822 47.7498 56.7385 47.795 56.6584C50.3361 52.159 53.3414 48.6137 56.5904 46.1829L55.2064 43.9407C51.7148 44.8719 48.3852 46.2046 45.2723 47.889Z" fill="#FF6F14"/>
<path d="M23.2531 94.2768C23.2529 94.2768 23.2526 94.2768 23.2524 94.2768C22.6902 94.2768 22.1359 94.2342 21.5907 94.1578C21.771 95.5355 22.0092 96.8951 22.3091 98.2319H40.8558C40.4065 94.9589 40.174 91.5982 40.174 88.1995C40.174 84.8008 40.4067 81.4398 40.8558 78.167H39.7686L33.2754 88.686C31.1141 92.1868 27.3674 94.2768 23.2531 94.2768Z" fill="#FF6F14"/>
<path d="M78.7933 43.9407L77.4093 46.1829C80.6585 48.6137 83.6636 52.1592 86.2049 56.6587C86.2502 56.7388 86.292 56.8225 86.3371 56.9029C86.5375 53.8319 87.3324 50.7802 88.7276 47.8893C85.6147 46.2046 82.2851 44.8719 78.7933 43.9407Z" fill="#FF6F14"/>
<path d="M110.747 94.2768C106.633 94.2768 102.886 92.187 100.725 88.6865L94.2312 78.1667H93.144C93.5934 81.4398 93.8258 84.8005 93.8258 88.1992C93.8258 91.5979 93.5932 94.9589 93.144 98.2317H111.691C111.991 96.8948 112.229 95.5352 112.409 94.1575C111.864 94.2339 111.309 94.2763 110.747 94.2766C110.747 94.2768 110.747 94.2768 110.747 94.2768Z" fill="#FF6F14"/>
<path d="M37.7186 50.3688C34.7513 45.0502 29.3439 41.875 23.2537 41.875C17.1635 41.875 11.7556 45.0504 8.78825 50.3691C5.82115 55.6877 5.95934 61.9572 9.15859 67.1398L19.9131 84.5616C20.6331 85.7283 21.8818 86.4253 23.2532 86.4253C24.6249 86.4253 25.8738 85.7286 26.5943 84.5616L37.3486 67.1398C40.5476 61.9569 40.686 55.6875 37.7186 50.3688ZM23.2537 62.293C21.0856 62.293 19.3279 60.5353 19.3279 58.3672C19.3279 56.1991 21.0856 54.4414 23.2537 54.4414C25.4218 54.4414 27.1795 56.1991 27.1795 58.3672C27.1795 60.5353 25.4218 62.293 23.2537 62.293Z" fill="#FF6F14"/>
</g>
<defs>
<clipPath id="clip0">
<rect width="134" height="134" fill="white"/>
</clipPath>
</defs>
</svg>
