<svg width="30" height="30" viewBox="0 0 30 30" fill="none" xmlns="http://www.w3.org/2000/svg">
<circle cx="15" cy="15" r="14" fill="#171616"/>
<circle cx="15" cy="15" r="14" stroke="#47484A" stroke-width="2"/>
<circle cx="15" cy="15" r="14" stroke="url(#paint0_linear)" stroke-width="2"/>
<path d="M17.2969 15C17.2969 16.2686 16.2686 17.2969 15 17.2969C13.7314 17.2969 12.7031 16.2686 12.7031 15C12.7031 13.7314 13.7314 12.7031 15 12.7031C16.2686 12.7031 17.2969 13.7314 17.2969 15Z" fill="#A5A9B8"/>
<path d="M20.3716 10.9362C20.2612 10.637 20.085 10.3662 19.8561 10.1439C19.6339 9.91504 19.3632 9.73889 19.0638 9.62848C18.821 9.53418 18.4563 9.42194 17.7845 9.39136C17.0577 9.35822 16.8398 9.35107 15 9.35107C13.16 9.35107 12.9421 9.35803 12.2155 9.39117C11.5437 9.42194 11.1788 9.53418 10.9362 9.62848C10.6368 9.73889 10.366 9.91504 10.1439 10.1439C9.91498 10.3662 9.73883 10.6368 9.62823 10.9362C9.53394 11.179 9.42169 11.5439 9.39111 12.2158C9.35797 12.9423 9.35083 13.1602 9.35083 15.0002C9.35083 16.8401 9.35797 17.058 9.39111 17.7847C9.42169 18.4565 9.53394 18.8213 9.62823 19.0641C9.73883 19.3635 9.91479 19.6341 10.1437 19.8564C10.366 20.0853 10.6366 20.2614 10.936 20.3718C11.1788 20.4663 11.5437 20.5786 12.2155 20.6091C12.9421 20.6423 13.1598 20.6492 14.9998 20.6492C16.84 20.6492 17.0579 20.6423 17.7843 20.6091C18.4561 20.5786 18.821 20.4663 19.0638 20.3718C19.6648 20.14 20.1398 19.665 20.3716 19.0641C20.4659 18.8213 20.5781 18.4565 20.6089 17.7847C20.642 17.058 20.649 16.8401 20.649 15.0002C20.649 13.1602 20.642 12.9423 20.6089 12.2158C20.5783 11.5439 20.4661 11.179 20.3716 10.9362ZM15 18.5384C13.0457 18.5384 11.4615 16.9543 11.4615 15.0001C11.4615 13.0458 13.0457 11.4617 15 11.4617C16.9541 11.4617 18.5383 13.0458 18.5383 15.0001C18.5383 16.9543 16.9541 18.5384 15 18.5384ZM18.6782 12.1487C18.2216 12.1487 17.8513 11.7785 17.8513 11.3218C17.8513 10.8652 18.2216 10.4949 18.6782 10.4949C19.1349 10.4949 19.5051 10.8652 19.5051 11.3218C19.5049 11.7785 19.1349 12.1487 18.6782 12.1487Z" fill="#A5A9B8"/>
<path d="M15 3C8.3736 3 3 8.3736 3 15C3 21.6264 8.3736 27 15 27C21.6264 27 27 21.6264 27 15C27 8.3736 21.6264 3 15 3ZM21.8491 17.8409C21.8157 18.5744 21.6991 19.0752 21.5288 19.5135C21.1708 20.4391 20.4391 21.1708 19.5135 21.5288C19.0754 21.6991 18.5744 21.8156 17.8411 21.8491C17.1063 21.8826 16.8715 21.8906 15.0002 21.8906C13.1287 21.8906 12.8941 21.8826 12.1591 21.8491C11.4258 21.8156 10.9248 21.6991 10.4866 21.5288C10.0267 21.3558 9.61029 21.0846 9.26605 20.7339C8.91559 20.3899 8.64441 19.9733 8.47137 19.5135C8.30109 19.0754 8.18445 18.5744 8.15112 17.8411C8.11725 17.1061 8.10938 16.8713 8.10938 15C8.10938 13.1287 8.11725 12.8939 8.15094 12.1591C8.18427 11.4256 8.30072 10.9248 8.47101 10.4865C8.64404 10.0267 8.91541 9.61011 9.26605 9.26605C9.61011 8.91541 10.0267 8.64423 10.4865 8.47119C10.9248 8.3009 11.4256 8.18445 12.1591 8.15094C12.8939 8.11743 13.1287 8.10938 15 8.10938C16.8713 8.10938 17.1061 8.11743 17.8409 8.15112C18.5744 8.18445 19.0752 8.3009 19.5135 8.47101C19.9733 8.64404 20.3899 8.91541 20.7341 9.26605C21.0846 9.61029 21.356 10.0267 21.5288 10.4865C21.6993 10.9248 21.8157 11.4256 21.8492 12.1591C21.8828 12.8939 21.8906 13.1287 21.8906 15C21.8906 16.8713 21.8828 17.1061 21.8491 17.8409Z" fill="#A5A9B8"/>
<defs>
<linearGradient id="paint0_linear" x1="15" y1="0" x2="15" y2="30" gradientUnits="userSpaceOnUse">
<stop stop-color="#A6ABBD"/>
<stop offset="1" stop-color="white" stop-opacity="0"/>
</linearGradient>
</defs>
</svg>
