<svg width="29" height="29" viewBox="0 0 29 29" fill="none" xmlns="http://www.w3.org/2000/svg">
<path d="M26.4512 3.45508H2.54888C2.15653 3.45508 1.78922 3.55154 1.45691 3.71053L14.4434 16.697L17.3541 13.8997C17.3541 13.8997 17.3543 13.8994 17.3544 13.8993C17.3545 13.8992 17.3547 13.8991 17.3547 13.8991L27.5436 3.71075C27.2112 3.55165 26.8437 3.45508 26.4512 3.45508Z" fill="#A5A9B8"/>
<path d="M28.7449 4.9126L19.1566 14.5004L28.7446 24.0883C28.9036 23.756 29 23.3887 29 22.9964V6.00418C29 5.61205 28.9038 5.24479 28.7449 4.9126Z" fill="#A5A9B8"/>
<path d="M0.255449 4.91211C0.096459 5.24442 0 5.61173 0 6.00408V22.9963C0 23.3884 0.0963457 23.7558 0.255223 24.088L9.84352 14.5002L0.255449 4.91211Z" fill="#A5A9B8"/>
<path d="M17.9552 15.7018L15.0441 18.4994C14.8781 18.6654 14.6607 18.7484 14.4434 18.7484C14.2261 18.7484 14.0086 18.6654 13.8427 18.4994L11.0449 15.7017L1.45642 25.2895C1.78879 25.4486 2.15633 25.5452 2.54879 25.5452H26.4511C26.8435 25.5452 27.2108 25.4487 27.5431 25.2897L17.9552 15.7018Z" fill="#A5A9B8"/>
</svg>
