<svg width="134" height="134" viewBox="0 0 134 134" fill="none" xmlns="http://www.w3.org/2000/svg">
<path d="M19.8906 62.8125C23.0599 62.8125 25.9388 61.552 28.0581 59.5083L39.6126 65.2855C39.5533 65.7619 39.5195 66.2455 39.5195 66.7383C39.5195 73.2322 44.803 78.5156 51.2969 78.5156C57.7908 78.5156 63.0742 73.2322 63.0742 66.7383C63.0742 64.9226 62.6602 63.201 61.9231 61.6634L77.6282 45.9582C79.1658 46.6953 80.8875 47.1094 82.7031 47.1094C89.197 47.1094 94.4805 41.8259 94.4805 35.332C94.4805 34.1052 94.2913 32.9224 93.9417 31.8101L107.586 21.5775C109.455 22.8258 111.698 23.5547 114.109 23.5547C120.603 23.5547 125.887 18.2712 125.887 11.7773C125.887 5.28345 120.603 0 114.109 0C107.615 0 102.332 5.28345 102.332 11.7773C102.332 13.0042 102.521 14.187 102.871 15.2993L89.2267 25.5319C87.3578 24.2836 85.1148 23.5547 82.7031 23.5547C76.2092 23.5547 70.9258 28.8381 70.9258 35.332C70.9258 37.1477 71.3398 38.8693 72.0769 40.4069L56.3718 56.1121C54.8342 55.375 53.1125 54.9609 51.2969 54.9609C48.1276 54.9609 45.2487 56.2215 43.1294 58.2651L31.5749 52.4879C31.6342 52.0115 31.668 51.5279 31.668 51.0352C31.668 44.5413 26.3845 39.2578 19.8906 39.2578C13.3967 39.2578 8.11328 44.5413 8.11328 51.0352C8.11328 57.5291 13.3967 62.8125 19.8906 62.8125ZM114.109 7.85156C116.274 7.85156 118.035 9.61305 118.035 11.7773C118.035 13.9416 116.274 15.7031 114.109 15.7031C111.945 15.7031 110.184 13.9416 110.184 11.7773C110.184 9.61305 111.945 7.85156 114.109 7.85156ZM82.7031 31.4062C84.8674 31.4062 86.6289 33.1677 86.6289 35.332C86.6289 37.4963 84.8674 39.2578 82.7031 39.2578C80.5388 39.2578 78.7773 37.4963 78.7773 35.332C78.7773 33.1677 80.5388 31.4062 82.7031 31.4062ZM51.2969 62.8125C53.4612 62.8125 55.2227 64.574 55.2227 66.7383C55.2227 68.9026 53.4612 70.6641 51.2969 70.6641C49.1326 70.6641 47.3711 68.9026 47.3711 66.7383C47.3711 64.574 49.1326 62.8125 51.2969 62.8125ZM19.8906 47.1094C22.0549 47.1094 23.8164 48.8709 23.8164 51.0352C23.8164 53.1994 22.0549 54.9609 19.8906 54.9609C17.7263 54.9609 15.9648 53.1994 15.9648 51.0352C15.9648 48.8709 17.7263 47.1094 19.8906 47.1094Z" fill="#FF6F14"/>
<path d="M130.074 126.148H125.887V43.1836C125.887 41.0152 124.129 39.2578 121.961 39.2578H106.258C104.089 39.2578 102.332 41.0152 102.332 43.1836V126.148H94.4805V66.7383C94.4805 64.5699 92.7231 62.8125 90.5547 62.8125H74.8516C72.6832 62.8125 70.9258 64.5699 70.9258 66.7383V126.148H63.0742V98.1445C63.0742 95.9762 61.3168 94.2188 59.1484 94.2188H43.4453C41.2769 94.2188 39.5195 95.9762 39.5195 98.1445V126.148H31.668V82.4414C31.668 80.273 29.9106 78.5156 27.7422 78.5156H12.0391C9.87068 78.5156 8.11328 80.273 8.11328 82.4414V126.148H3.92578C1.7574 126.148 0 127.906 0 130.074C0 132.243 1.7574 134 3.92578 134H130.074C132.243 134 134 132.243 134 130.074C134 127.906 132.243 126.148 130.074 126.148ZM110.184 47.1094H118.035V126.148H110.184V47.1094ZM78.7773 70.6641H86.6289V126.148H78.7773V70.6641ZM47.3711 102.07H55.2227V126.148H47.3711V102.07ZM15.9648 86.3672H23.8164V126.148H15.9648V86.3672Z" fill="#FF6F14"/>
</svg>
