<svg width="81" height="80" viewBox="0 0 81 80" fill="none" xmlns="http://www.w3.org/2000/svg">
<g clip-path="url(#clip0)">
<path d="M43.3298 13.5693C46.9321 12.0761 48.6418 7.94559 47.1487 4.34343C45.6556 0.741276 41.5251 -0.968425 37.9228 0.52471C34.3206 2.01785 32.6108 6.1484 34.1039 9.75056C35.597 13.3527 39.7276 15.0624 43.3298 13.5693Z" fill="#FF6F14"/>
<path d="M28.2705 34.6875H52.9677C54.2588 34.6875 55.2063 33.4747 54.894 32.2219L53.0498 24.8252C52.1677 21.2877 48.9902 18.8052 45.3444 18.8052H35.8937C32.2479 18.8052 29.0704 21.2877 28.1883 24.8252L26.3441 32.2219C26.0318 33.4747 26.9794 34.6875 28.2705 34.6875Z" fill="#FF6F14"/>
<path d="M80.5601 26.126C80.5546 23.7174 78.7662 21.6852 76.3777 21.3736C73.5024 20.9986 70.9527 23.2372 70.9527 26.1371L70.9529 35.5025C71.7532 35.8696 72.5027 36.3814 73.1609 37.0396C74.6027 38.4816 75.3968 40.3985 75.3968 42.4375C75.3968 44.4768 74.6027 46.3936 73.1609 47.8353L63.0576 57.9386C62.5999 58.3963 62.0001 58.6252 61.4004 58.6252C60.8007 58.6252 60.2007 58.3963 59.7432 57.9386C58.8279 57.0235 58.8279 55.5394 59.7432 54.6241L69.8465 44.5208C70.4029 43.9643 70.7093 43.2246 70.7093 42.4375C70.7093 41.6507 70.4029 40.9108 69.8463 40.3542C68.6977 39.2058 66.8287 39.2057 65.6798 40.3542L58.5899 47.4443C58.0134 48.0208 57.2112 48.2333 56.4676 48.0835L53.8127 47.9249C52.2245 47.7422 50.6398 48.2946 49.5091 49.425L45.7088 53.2253C43.9505 54.9835 42.9629 57.368 42.9629 59.8544V78.4375C42.9629 79.3005 43.6624 80 44.5254 80H61.0879C61.9509 80 62.6504 79.3005 62.6504 78.4375V73.2014L78.3173 57.5344C79.7955 56.0561 80.6238 54.0499 80.6191 51.9594L80.5601 26.126Z" fill="#FF6F14"/>
<path d="M31.7289 49.425C30.5985 48.2946 29.0136 47.7421 27.4253 47.9249L24.7711 48.0835C24.0274 48.2336 23.2249 48.0211 22.6481 47.4443L15.5583 40.3542C14.4095 39.2055 12.5403 39.2053 11.3917 40.3544C10.8353 40.9108 10.5289 41.6507 10.5289 42.4375C10.5289 43.2246 10.8353 43.9643 11.3917 44.5208L21.495 54.6241C22.4103 55.5392 22.4103 57.0233 21.495 57.9386C21.0374 58.3963 20.4375 58.6252 19.8378 58.6252C19.238 58.6252 18.6383 58.3964 18.1806 57.9386L8.07736 47.8353C6.63548 46.3936 5.84142 44.4768 5.84142 42.4375C5.84142 40.3985 6.63548 38.4816 8.0772 37.0397C8.73532 36.3816 9.48501 35.8696 10.2853 35.5025L10.2855 26.1371C10.2855 23.2374 7.73595 20.9986 4.86048 21.3736C2.47204 21.6852 0.683605 23.7174 0.678136 26.126L0.618918 51.9594C0.614074 54.0499 1.44251 56.0563 2.92079 57.5344L18.5877 73.2014V78.4375C18.5877 79.3005 19.2872 80 20.1502 80H36.7127C37.5756 80 38.2752 79.3005 38.2752 78.4375V59.8544C38.2752 57.368 37.2875 54.9835 35.5292 53.2253L31.7289 49.425Z" fill="#FF6F14"/>
</g>
<defs>
<clipPath id="clip0">
<rect width="80" height="80" fill="white" transform="translate(0.619141)"/>
</clipPath>
</defs>
</svg>
