<svg width="81" height="80" viewBox="0 0 81 80" fill="none" xmlns="http://www.w3.org/2000/svg">
<g clip-path="url(#clip0)">
<path d="M78.4458 75.3123H75.9459V29.063C75.9459 27.7686 74.8965 26.7192 73.6022 26.7192H64.2273C62.9329 26.7192 61.8836 27.7686 61.8836 29.063V75.3123H57.1961V44.6877C57.1961 43.3934 56.1468 42.344 54.8524 42.344H45.4775C44.1832 42.344 43.1338 43.3934 43.1338 44.6877V75.3123H38.4464V53.2814C38.4464 51.987 37.397 50.9377 36.1027 50.9377H26.7278C25.4334 50.9377 24.3841 51.987 24.3841 53.2814V75.3123H19.6966V58.9063C19.6966 57.6119 18.6473 56.5626 17.3529 56.5626H7.97805C6.68369 56.5626 5.63433 57.6119 5.63433 58.9063V75.3123H3.13437C1.84001 75.3123 0.790649 76.3617 0.790649 77.656C0.790649 78.9504 1.84001 79.9998 3.13437 79.9998H78.4458C79.7402 79.9998 80.7896 78.9504 80.7896 77.656C80.7896 76.3617 79.7402 75.3123 78.4458 75.3123Z" fill="#FF6F14"/>
<path d="M3.13437 50.3603C17.762 50.3603 33.6246 45.1069 47.8003 35.5678C58.9025 28.0968 68.1572 18.5528 73.9059 8.77992L76.1821 17.2746C76.4627 18.3218 77.8176 19.2265 79.0525 18.9318C80.3116 18.6315 81.0447 17.3117 80.7097 16.0614L76.8718 1.73814C76.5366 0.487999 75.2521 -0.254178 74.0014 0.0809732L59.6781 3.91889C58.4278 4.25388 57.686 5.53902 58.021 6.78932C58.3561 8.03961 59.6406 8.78179 60.8914 8.44648L70.1186 5.97402C64.7554 15.2936 55.8918 24.4728 45.1833 31.6788C31.7729 40.7031 16.8396 45.6728 3.13437 45.6728C1.84001 45.6728 0.790649 46.7222 0.790649 48.0166C0.790649 49.3109 1.84001 50.3603 3.13437 50.3603Z" fill="#FF6F14"/>
</g>
<defs>
<clipPath id="clip0">
<rect width="80" height="80" fill="white" transform="translate(0.790649)"/>
</clipPath>
</defs>
</svg>
