<svg width="81" height="80" viewBox="0 0 81 80" fill="none" xmlns="http://www.w3.org/2000/svg">
<g clip-path="url(#clip0)">
<path d="M77.3551 77.2415H80.1137V80.0001H77.3551V77.2415Z" fill="#FF6F14"/>
<path d="M0.11377 77.2415H2.87239V80.0001H0.11377V77.2415Z" fill="#FF6F14"/>
<path d="M35.9758 27.5862V46.6096C39.5251 39.7198 46.1954 34.7158 54.1109 33.4469L38.4832 27.5862H35.9758Z" fill="#FF6F14"/>
<path d="M10.1522 53.2591L15.5596 49.6553H1.22168L6.62847 53.2591C7.67507 53.9575 9.10288 53.9575 10.1522 53.2591Z" fill="#FF6F14"/>
<path d="M24.9413 13.7931C27.9841 13.7931 30.4586 11.3187 30.4586 8.27586V5.51724C30.4586 2.47441 27.9841 0 24.9413 0C21.8985 0 19.4241 2.47441 19.4241 5.51724V8.27586C19.4241 11.3187 21.8985 13.7931 24.9413 13.7931Z" fill="#FF6F14"/>
<path d="M16.6655 52.2319L11.681 55.5543C10.7011 56.2069 9.56353 56.5517 8.38963 56.5517C7.21574 56.5517 6.07821 56.2069 5.09828 55.5543L0.11377 52.2319V60.6896H16.6682L16.6655 52.2319Z" fill="#FF6F14"/>
<path d="M80.1137 57.9311C80.1137 45.7631 70.2127 35.8621 58.0448 35.8621C45.8768 35.8621 35.9758 45.7631 35.9758 57.9311C35.9758 66.2345 40.5899 73.4746 47.3841 77.2414H33.2172V24.8276H38.9856L60.73 32.9809C60.9455 33.0624 61.1718 33.1035 61.4008 33.1035H61.6533C62.7053 33.1035 63.562 32.2468 63.562 31.1934C63.562 30.4068 63.0906 29.7104 62.3619 29.4195L37.6737 19.5447C37.2117 19.3602 36.7301 19.2262 36.2472 19.1447L27.6999 17.7202V16.0688C26.8352 16.3753 25.9098 16.5517 24.9413 16.5517C23.9728 16.5517 23.0475 16.3753 22.1827 16.0688V17.5465L10.7125 21.3686C10.1467 21.5571 9.76891 22.0845 9.76891 22.6771V44.8276C9.76891 45.9685 10.697 46.8966 11.8379 46.8966C12.9788 46.8966 13.9068 45.9685 13.9068 44.8276V24.8276H16.6655V46.8966C18.1869 46.8966 19.4241 48.1338 19.4241 49.6552V60.6897C19.4241 62.2111 18.1869 63.4483 16.6655 63.4483V77.2414H5.63098V80H74.5965V77.2414H68.7055C75.4996 73.4746 80.1137 66.2345 80.1137 57.9311ZM23.562 77.2414V42.7586H26.3206V77.2414H23.562ZM58.0448 38.6207C68.6933 38.6207 77.3551 47.2825 77.3551 57.9311C77.3551 62.527 75.701 66.9848 72.6986 70.487L70.6047 68.6894C72.8764 66.0412 74.2436 62.7533 74.5345 59.3104H70.4586V56.5517H74.5265C73.8597 48.5257 67.4501 42.1161 59.4241 41.4494V45.5173H56.6655V41.4413C53.2226 41.7322 49.9346 43.0981 47.2864 45.3711L45.4889 43.2772C48.991 40.2748 53.4489 38.6207 58.0448 38.6207ZM63.562 56.5517V59.3104H56.6655V48.2759H59.4241V56.5517H63.562ZM38.7344 57.9311C38.7344 53.3351 40.3885 48.8773 43.3909 45.3752L45.4848 47.1727C43.2131 49.8209 41.846 53.1089 41.555 56.5517H45.631V59.3104H41.5631C42.2299 67.3364 48.6395 73.746 56.6655 74.4127V70.3448H59.4241V74.4208C62.867 74.1299 66.155 72.764 68.8031 70.491L70.6007 72.5849C67.0985 75.5873 62.6407 77.2414 58.0448 77.2414C47.3962 77.2414 38.7344 68.5796 38.7344 57.9311Z" fill="#FF6F14"/>
</g>
<defs>
<clipPath id="clip0">
<rect width="80" height="80" fill="white" transform="translate(0.11377)"/>
</clipPath>
</defs>
</svg>
