<svg width="80" height="80" viewBox="0 0 80 80" fill="none" xmlns="http://www.w3.org/2000/svg">
<path d="M76.3916 13.125H60C59.3524 13.125 58.8281 13.6493 58.8281 14.2969C58.8281 14.9445 59.3524 15.4688 60 15.4688H76.3916C77.0892 15.4688 77.6562 16.0358 77.6562 16.7334V61.8604C77.6562 62.558 77.0892 63.125 76.3916 63.125H3.6084C2.91077 63.125 2.34375 62.558 2.34375 61.8604V16.7334C2.34375 16.0358 2.91077 15.4688 3.6084 15.4688H29.3555V17.8125H5.85938C5.21179 17.8125 4.6875 18.3368 4.6875 18.9844V49.9481C4.6875 50.5951 5.21179 51.12 5.85938 51.12C6.50696 51.12 7.03125 50.5951 7.03125 49.9481V20.1562H29.3555V26.4429L24.3384 28.8397C23.938 29.0314 23.6719 29.4452 23.6719 29.8975V49.0088C23.6719 49.4604 23.9313 49.8718 24.3384 50.0665L39.4946 57.3077C39.823 57.4622 40.1935 57.4542 40.5054 57.3077L49.0259 53.2367C49.61 52.9578 49.8572 52.2577 49.5782 51.6742C49.2993 51.0901 48.5986 50.8429 48.0151 51.1218L41.1719 54.3915V37.8772L53.9844 31.756V48.2703L52.2437 49.1016C51.6595 49.3805 51.4124 50.0806 51.6913 50.6641C51.9702 51.2482 52.6703 51.4954 53.2538 51.2164L55.6616 50.0665C56.0687 49.8718 56.3281 49.4604 56.3281 49.0088V29.8975C56.3281 29.4507 56.0681 29.0344 55.6616 28.8397L50.6445 26.4429V20.1562H72.9688V58.4375H7.03125V54.9481C7.03125 54.3005 6.50696 53.7762 5.85938 53.7762C5.21179 53.7762 4.6875 54.3005 4.6875 54.9481V59.6094C4.6875 60.257 5.21179 60.7812 5.85938 60.7812H74.1406C74.7882 60.7812 75.3125 60.257 75.3125 59.6094V18.9844C75.3125 18.3368 74.7882 17.8125 74.1406 17.8125H50.6445V15.4688H55C55.6476 15.4688 56.1719 14.9445 56.1719 14.2969C56.1719 13.6493 55.6476 13.125 55 13.125H50.6445V10.7812H61.1523C61.7999 10.7812 62.3242 10.257 62.3242 9.60938V6.82983C63.6884 6.34583 64.668 5.04333 64.668 3.51562C64.668 1.57715 63.0908 0 61.1523 0C59.2139 0 57.6367 1.57715 57.6367 3.51562C57.6367 5.04333 58.6163 6.34583 59.9805 6.82983V8.4375H49.4727C48.8251 8.4375 48.3008 8.96179 48.3008 9.60938V13.125H41.1719V6.82983C42.536 6.34583 43.5156 5.04333 43.5156 3.51562C43.5156 1.57715 41.9385 0 40 0C38.0615 0 36.4844 1.57715 36.4844 3.51562C36.4844 5.04333 37.464 6.34583 38.8281 6.82983V13.125H31.6992V9.60938C31.6992 8.96179 31.1749 8.4375 30.5273 8.4375H20.0195V6.82983C21.3837 6.34583 22.3633 5.04333 22.3633 3.51562C22.3633 1.57715 20.7861 0 18.8477 0C16.9092 0 15.332 1.57715 15.332 3.51562C15.332 5.04333 16.3116 6.34583 17.6758 6.82983V9.60938C17.6758 10.257 18.2001 10.7812 18.8477 10.7812H29.3555V13.125H3.6084C1.61865 13.125 0 14.7437 0 16.7334V61.8604C0 63.8501 1.61865 65.4688 3.6084 65.4688H29.0149C28.5614 69.7675 25.719 72.2778 24.823 72.9688H19.8438C17.9053 72.9688 16.3281 74.5459 16.3281 76.4844C16.3281 78.4229 17.9053 80 19.8438 80H60.1562C62.0947 80 63.6719 78.4229 63.6719 76.4844C63.6719 74.5459 62.0947 72.9688 60.1562 72.9688H55.1801C54.2957 72.2803 51.4435 69.7473 50.9863 65.4688H76.3916C78.3813 65.4688 80 63.8501 80 61.8604V16.7334C80 14.7437 78.3813 13.125 76.3916 13.125ZM61.1523 2.34375C61.7987 2.34375 62.3242 2.86926 62.3242 3.51562C62.3242 4.16199 61.7987 4.6875 61.1523 4.6875C60.506 4.6875 59.9805 4.16199 59.9805 3.51562C59.9805 2.86926 60.506 2.34375 61.1523 2.34375ZM40 2.34375C40.6464 2.34375 41.1719 2.86926 41.1719 3.51562C41.1719 4.16199 40.6464 4.6875 40 4.6875C39.3536 4.6875 38.8281 4.16199 38.8281 3.51562C38.8281 2.86926 39.3536 2.34375 40 2.34375ZM18.8477 2.34375C19.494 2.34375 20.0195 2.86926 20.0195 3.51562C20.0195 4.16199 19.494 4.6875 18.8477 4.6875C18.2013 4.6875 17.6758 4.16199 17.6758 3.51562C17.6758 2.86926 18.2013 2.34375 18.8477 2.34375ZM31.6992 20.1562H38.8281V21.9171L31.6992 25.3235V20.1562ZM52.4377 29.8975L40 35.8392L27.5623 29.8975L40 23.9551L52.4377 29.8975ZM26.0156 31.756L38.8281 37.8772V54.3915L26.0156 48.2703V31.756ZM48.3008 25.3235L41.1719 21.9171V20.1562H48.3008V25.3235ZM48.3008 15.4688V17.8125H41.1719V15.4688H48.3008ZM38.8281 15.4688V17.8125H31.6992V15.4688H38.8281ZM61.3281 76.4844C61.3281 77.1307 60.8026 77.6562 60.1562 77.6562H19.8438C19.1974 77.6562 18.6719 77.1307 18.6719 76.4844C18.6719 75.838 19.1974 75.3125 19.8438 75.3125H60.1562C60.8026 75.3125 61.3281 75.838 61.3281 76.4844ZM51.8188 72.9688H28.1812C29.5551 71.3641 31.0791 68.8635 31.3715 65.4688H48.6285C48.9209 68.8635 50.4449 71.3641 51.8188 72.9688Z" fill="#FF6F14"/>
</svg>
