<svg width="30" height="30" viewBox="0 0 30 30" fill="none" xmlns="http://www.w3.org/2000/svg">
<circle cx="15" cy="15" r="14" fill="#171616"/>
<circle cx="15" cy="15" r="14" stroke="#47484A" stroke-width="2"/>
<circle cx="15" cy="15" r="14" stroke="url(#paint0_linear)" stroke-width="2"/>
<path d="M15 3C8.3736 3 3 8.3736 3 15C3 21.6264 8.3736 27 15 27C21.6264 27 27 21.6264 27 15C27 8.3736 21.6264 3 15 3ZM20.4791 12.3563C20.4844 12.4744 20.4869 12.5931 20.4869 12.7123C20.4869 16.3519 17.7166 20.5488 12.6502 20.549H12.6504H12.6502C11.0947 20.549 9.64728 20.0931 8.42834 19.3118C8.64386 19.3372 8.86322 19.3499 9.08533 19.3499C10.3759 19.3499 11.5635 18.9097 12.5063 18.1708C11.3005 18.1485 10.2839 17.3522 9.93311 16.2578C10.101 16.29 10.2737 16.3076 10.4507 16.3076C10.7021 16.3076 10.9457 16.2737 11.1771 16.2105C9.91681 15.9582 8.96741 14.8444 8.96741 13.5106C8.96741 13.4982 8.96741 13.487 8.96777 13.4755C9.33893 13.6818 9.76337 13.806 10.2153 13.8199C9.47571 13.3264 8.98956 12.4828 8.98956 11.5272C8.98956 11.0226 9.12598 10.5498 9.36255 10.1428C10.7208 11.8094 12.7507 12.9055 15.0399 13.0206C14.9927 12.8188 14.9683 12.6086 14.9683 12.3926C14.9683 10.8721 16.2019 9.63849 17.723 9.63849C18.5153 9.63849 19.2308 9.97339 19.7335 10.5088C20.361 10.385 20.9502 10.1558 21.4825 9.84027C21.2765 10.4832 20.84 11.0226 20.2712 11.3637C20.8284 11.2971 21.3594 11.1493 21.8529 10.9299C21.4843 11.4824 21.0168 11.9676 20.4791 12.3563Z" fill="#A5A9B8"/>
<defs>
<linearGradient id="paint0_linear" x1="15" y1="0" x2="15" y2="30" gradientUnits="userSpaceOnUse">
<stop stop-color="#A6ABBD"/>
<stop offset="1" stop-color="white" stop-opacity="0"/>
</linearGradient>
</defs>
</svg>
